<svg version="1.1" id="Layer_1" xmlns="http://www.w3.org/2000/svg" x="0" y="0" viewBox="0 0 3000 4635" xml:space="preserve" width="4635" height="2000"><style>.st2{fill:#be6700}</style><path fill="#f6f5de" stroke="#100" stroke-width="100" stroke-miterlimit="10" d="M42.6 49.1h2908.5v4537.4H42.6z" id="Layer_4"/><g id="atom_1_"><g id="atom"><circle cx="1497.9" cy="2318.5" r="910.4" fill="none" stroke="#000" stroke-width="104" stroke-miterlimit="10"/><circle class="st2" cx="1497.9" cy="2318.5" r="524.8"/><path class="st2" d="M2438.1 1754c0 123.2-99.4 222.6-222.6 222.6s-222.6-99.4-222.6-222.6 99.4-222.6 222.6-222.6c122.2-.1 222.6 99.3 222.6 222.6z"/></g></g><g id="title"><path d="M851.1 3949.8l45.6-213h30.4l45.6 213h-30.4l-11.4-53.2h-38l-11.4 53.2h-30.4zm45.7-76.1h30.4l-15.2-91.3-15.2 91.3zm130.1 78.2c-12 0-20.7-3-26.1-9.2-5.4-6.1-8.2-15.3-8.4-27.7v-94.6h-15.2v-22.8h15.2v-53.2h30.4v53.2h22.8v22.8h-22.8v88.8c0 6.1.8 10.6 2.5 13.4 1.7 2.9 5 4.3 10.1 4.3 2.2 0 5.6-.4 10.2-1.2v24.7c-7.5 1-13.8 1.5-18.7 1.5zm114.1-14.2c-7.1 9.5-18.7 14.3-35.1 14.3-16.3 0-28-4.8-35.1-14.3-7.1-9.5-10.6-23.2-10.6-41.1V3851c0-17.9 3.5-31.6 10.6-41.1s18.7-14.3 35.1-14.3c16.3 0 28 4.8 35.1 14.3 7.1 9.5 10.6 23.2 10.6 41.1v45.6c0 17.9-3.5 31.6-10.6 41.1zm-40.7-11.7c1.6.6 3.5 1 5.6 1s4-.3 5.6-1c1.6-.6 3-1.4 4-2.3 1.1-.9 2-2.3 2.7-4 .7-1.8 1.3-3.3 1.7-4.7.4-1.3.7-3.3.8-5.8.2-2.5.3-4.5.3-6s.1-3.7.1-6.6V3851c0-2.9 0-5.1-.1-6.6 0-1.5-.1-3.5-.3-6-.2-2.5-.4-4.5-.8-5.8-.4-1.3-1-2.9-1.7-4.7-.7-1.8-1.6-3.1-2.7-4a14 14 0 0 0-4-2.3c-1.6-.6-3.5-1-5.6-1s-4 .3-5.6 1c-1.6.6-3 1.4-4 2.3-1.1.9-2 2.3-2.7 4-.7 1.8-1.3 3.3-1.7 4.7-.4 1.3-.7 3.3-.8 5.8-.2 2.5-.3 4.5-.3 6s-.1 3.7-.1 6.6v45.6c0 2.9 0 5.1.1 6.6 0 1.5.1 3.5.3 6 .2 2.5.4 4.5.8 5.8.4 1.3 1 2.9 1.7 4.7.7 1.8 1.6 3.1 2.7 4a14 14 0 0 0 4 2.3zm72.4 23.8v-152.1h30.4v17.2c10.9-12.9 23.5-19.4 37.9-19.4 7.3 0 12.6 1.6 16 4.8 3.4 3.2 5.7 8.3 6.9 15.3 5-6.6 10.4-11.6 16.2-15 5.8-3.4 13.1-5.1 21.9-5.1 2.5 0 4.8.3 6.8.8s3.8 1.1 5.3 1.8 2.8 1.8 4 3.3c1.1 1.5 2.1 2.8 2.9 4 .8 1.2 1.4 3 1.9 5.3s.9 4.2 1.1 5.7c.2 1.5.4 3.7.6 6.7.2 2.9.2 5.2.2 6.9v119.8h-30.4v-112.9c0-2.6 0-4.6-.1-6.1-.1-1.4-.3-3.1-.8-4.9-.4-1.9-1.2-3.2-2.3-4.1-1.1-.9-2.6-1.3-4.4-1.3-3.1 0-6.2.6-9.3 1.8-3.1 1.2-5.5 2.4-7.2 3.6-1.7 1.1-3.8 2.8-6.4 4.8v119.1h-30.4v-117.5c0-1.1-.1-2.6-.4-4.3-.3-1.8-.7-3.1-1.1-4-.5-.9-1.2-1.7-2.3-2.4-1-.7-2.3-1.1-3.8-1.1-7.4 0-15.1 3.2-22.8 9.6v119.7h-30.4zm176.1-174.9v-30.4h30.4v30.4h-30.4zm0 174.9v-152.1h30.4v152.1h-30.4zm93.7 2.1c-7.4 0-13.8-1.2-19.2-3.7-5.4-2.5-9.8-5.7-13-9.6-3.2-4-5.9-9-7.8-15.2-2-6.1-3.3-12.3-4.1-18.4-.8-6.1-1.2-13.3-1.4-21.5-.2-6.6-.2-13.2 0-19.8.2-8.1.6-15.2 1.4-21.4.8-6.2 2.1-12.3 4.2-18.5 2-6.1 4.6-11.2 7.8-15.1 3.2-3.9 7.5-7.1 13-9.6 5.4-2.5 11.8-3.7 19.2-3.7 16 0 27.5 4.3 34.5 13 7 8.6 10.7 21.4 11.2 38.4v4h-30.4v-4.3c-.1-3.8-.3-7.1-.8-10-.4-2.9-1.1-5.7-2.1-8.6-1-2.9-2.5-5.1-4.6-6.6-2.1-1.5-4.7-2.3-7.7-2.3s-5.5.9-7.6 2.7c-2.1 1.8-3.6 4.3-4.7 7.7s-1.8 6.8-2.3 10.3c-.5 3.5-.8 7.6-.8 12.2-.3 9.8-.3 24.6 0 44.4.2 4.4.5 8.2 1 11.5.5 3.3 1.2 6.5 2.3 9.5 1.1 3.1 2.6 5.4 4.7 7.1 2.1 1.7 4.6 2.5 7.5 2.5 2.7 0 5-.5 7-1.5 1.9-1 3.4-2.3 4.5-3.8 1-1.5 1.8-3.5 2.4-6.1.6-2.5 1-4.9 1.1-7.1.2-2.2.2-4.9.2-8.3v-3.7h30.4v3.9c-.2 8-1.2 15.1-3 21.2-1.7 6.1-4.4 11.5-7.9 16.1-3.5 4.6-8.2 8.1-14 10.5-6.1 2.6-13 3.8-21 3.8zm107.5-2.1v-213h47.2c22.3 0 38 4.6 47.1 13.7 9.2 9.1 13.7 24.8 13.7 47.2v83.7c0 23.4-4.7 40.6-14 51.8-9.3 11.1-25 16.7-47.1 16.7H1550zm30.4-22.8h16.8c5 0 9.3-.5 12.8-1.4 3.6-.9 6.5-2.6 8.7-5 2.2-2.4 4-4.7 5.2-6.9 1.3-2.2 2.2-5.6 2.7-10.2s.8-8.4.9-11.3c.1-3 .1-7.6.1-13.8v-73.1c0-3.9 0-7-.1-9.3 0-2.3-.2-5-.4-8.1-.2-3.1-.5-5.6-.9-7.4-.4-1.8-1-3.9-1.7-6.1s-1.6-4-2.7-5.3c-1.1-1.3-2.4-2.6-3.9-4s-3.3-2.4-5.3-3.1c-2-.7-4.4-1.2-7.1-1.7-2.7-.4-5.7-.7-9-.7h-16.2V3927zm142 24.9c-7.4 0-13.8-1.3-19.2-3.8-5.4-2.5-9.7-5.8-13-9.9-3.2-4.1-5.8-9.3-7.8-15.7-2-6.4-3.3-12.8-4.1-19.1-.8-6.4-1.2-13.8-1.4-22.3-.2-6.7-.2-13.3 0-20 .2-7.9.8-15 1.6-21.1.8-6.1 2.3-12.1 4.3-17.9 2.1-5.8 4.7-10.5 8-14.3 3.3-3.7 7.6-6.7 13-9s11.6-3.4 18.7-3.4c6.5 0 12.2.9 17.2 2.6 5 1.7 9.1 4.3 12.4 7.7 3.3 3.4 6 7.3 8.2 11.5 2.2 4.2 3.8 9.3 4.9 15.3 1.1 6 1.9 11.9 2.3 17.6.4 5.8.7 12.4.7 20v3.6h-60.8v12.5c-.2 2.9-.2 6-.1 9.1.1 3.1.3 6.2.4 9.2.2 3 .6 5.9 1.3 8.6s1.6 5.1 2.6 7.2c1 2.1 2.5 3.7 4.3 4.9 1.9 1.2 4.1 1.8 6.6 1.8 3.2 0 5.8-.6 7.8-1.8 2.1-1.2 3.6-3.1 4.6-5.5 1-2.5 1.7-4.9 2.1-7.4.4-2.5.6-5.5.7-9.3v-6.4h30.2v6.1c-.7 16.2-4.7 28.5-12 36.8-7.1 8.3-18.3 12.4-33.5 12.4zm-14.9-93.4h30.2v-9.2c-.1-4-.3-7.6-.7-10.6-.4-3-1.1-6-2.1-9s-2.5-5.3-4.6-6.9c-2.1-1.6-4.6-2.4-7.6-2.4-3.1 0-5.7.8-7.8 2.5-2.1 1.7-3.6 4.1-4.6 7.2-1 3.1-1.7 6.2-2.1 9.2-.4 3-.6 6.6-.7 10.8v8.4zm118.8 93.4c-12.5 0-22.6-3.7-30.1-11.2-7.6-7.4-12.7-17.1-15.5-29l22.8-7.6c5.5 15.2 13.1 22.8 22.8 22.8 4.8 0 8.6-1.3 11.2-4 2.7-2.7 4-6.4 4-11.2 0-7-2.5-12.9-7.6-17.6l-30.4-22.8c-3.4-2.3-6.3-4.5-8.6-6.5s-4.6-4.5-7-7.4c-2.4-2.9-4.2-6.2-5.4-9.9-1.2-3.6-1.8-7.6-1.8-11.9 0-13 4.1-22.9 12.4-29.8 8.3-6.9 19.4-10.3 33.2-10.3 6.6 0 12.5 1.1 17.8 3.1 5.3 2.1 9.8 5 13.4 8.9 3.6 3.8 6.6 8 8.9 12.7 2.3 4.6 4.2 9.8 5.5 15.5l-22.8 7.6c-1.1-3-2.2-5.6-3.3-7.8-1.1-2.2-2.6-4.5-4.5-7.1-1.9-2.5-4.1-4.5-6.6-5.9-2.5-1.4-5.3-2.1-8.4-2.1-4.8 0-8.6 1.3-11.2 4-2.7 2.7-4 6.4-4 11.2 0 4.8 2.5 9 7.6 12.8l30.4 22.8c3.4 2.7 6.3 5.3 8.7 7.8 2.4 2.5 4.8 5.4 7.1 8.7 2.3 3.3 4 7 5.2 11 1.2 4 1.8 8.4 1.8 13 0 13-4.1 22.9-12.4 29.8-8.2 7-19.3 10.4-33.2 10.4zm61.6-177v-30.4h30.4v30.4h-30.4zm0 174.9v-152.1h30.4v152.1h-30.4zm103.8 45.5c-3.8 0-6.9 0-9.3-.1-2.4 0-5.6-.1-9.7-.3-4.1-.2-7.6-.5-10.3-.9-2.8-.4-5.9-1-9.5-1.7-3.6-.7-6.5-1.6-8.9-2.7-2.3-1.1-4.6-2.4-6.7-3.9-2.1-1.5-3.7-3.3-4.8-5.5-1.1-2.2-1.6-4.6-1.6-7.3 0-7.9 2.1-14.7 6.4-20.3 4.2-5.6 9.7-10.1 16.5-13.4-4.1-1.1-7.7-2.8-10.7-5.1-3-2.3-4.5-5-4.5-8.3 0-1.3.2-2.8.5-4.3s.7-2.9 1.1-4.1c.4-1.2 1-2.6 1.9-4.2.9-1.6 1.6-2.8 2.1-3.7.5-.9 1.4-2.2 2.6-3.8 1.2-1.6 2-2.7 2.4-3.3.4-.6 1.3-1.7 2.6-3.2 1.3-1.5 2-2.4 2.1-2.7-10.1-12-15.2-27.3-15.2-45.6 0-10.5 1.7-19.9 5-28.2 3.3-8.2 8.5-14.8 15.5-19.8s15.4-7.4 25.1-7.4c5.6 0 10.5.8 14.7 2.4 4.2 1.6 7.6 3.6 10.3 6 2.7 2.4 5.2 5.6 7.8 9.6 6-11.2 14.6-17.1 25.7-17.8h2.4v24.8h-1.9c-3.4 0-6 0-7.7.1-1.7.1-3.7.4-5.8 1-2.1.6-3.8 1.5-5.1 2.8 1.4 3.1 2.7 7.2 3.7 12.3 1.1 5.1 1.6 9.8 1.6 14.2 0 10.6-1.6 20-4.8 28.2-3.2 8.2-8.3 14.7-15.3 19.6-7 4.9-15.5 7.4-25.5 7.4l-15.3-1.8c-.2.4-.6 1.1-1.2 2.1s-1.1 1.8-1.5 2.4c-.4.6-.7 1.4-1 2.4-.3 1-.5 1.9-.5 2.8 0 2.1 1 3.8 3 5.2 2 1.4 4.7 2.5 8.2 3.1 3.5.7 6.8 1.2 10 1.5 3.2.3 6.8.6 10.8.8 4 .2 6.7.4 8.2.7 4.5.6 8.5 1.4 12.1 2.2 3.5.8 7.1 2 10.8 3.6 3.7 1.6 6.7 3.5 9.1 5.7 2.4 2.2 4.3 5.1 5.9 8.6 1.5 3.5 2.3 7.5 2.3 12 0 5.5-1 10.5-2.9 14.9s-4.5 8-7.8 10.8c-3.2 2.9-7.2 5.2-11.8 7.1-4.6 1.9-9.4 3.2-14.5 4-5.4.7-10.8 1.1-16.6 1.1zm0-22.5c2.1 0 4.1 0 5.8-.1 1.7-.1 3.7-.2 5.9-.5 2.2-.2 4.1-.6 5.8-1.1 1.6-.5 3.2-1.2 4.6-2 1.5-.8 2.6-1.8 3.4-3.1.8-1.3 1.2-2.8 1.2-4.5 0-8.5-8.1-13.7-24.4-15.6l-25.1-3c-3.1 2.2-5.7 5.4-7.9 9.6-2.2 4.2-3.3 8.6-3.3 13.2 0 1.3.4 2.4 1.3 3.3.9.9 2.2 1.6 3.9 2.1 1.7.5 3.4.9 5.2 1.2 1.8.3 3.9.5 6.4.6 2.5.1 4.6.1 6.3.1 1.7 0 3.8 0 6.1-.1 2.3 0 3.9-.1 4.8-.1zm-7.6-89.6c12.7 0 19-10.8 19-32.3 0-4.4-.3-8.4-.8-12.1-.6-3.7-1.5-7.3-2.9-10.8-1.3-3.5-3.3-6.3-5.9-8.3-2.6-2-5.7-3-9.4-3s-6.9 1-9.5 3c-2.6 2-4.6 4.8-5.9 8.3-1.3 3.5-2.2 7.1-2.8 10.8-.6 3.7-.8 7.7-.8 12.1 0 21.6 6.3 32.3 19 32.3zm65.5 66.6v-152.1h30.4v16.4c4.5-4.1 8.2-7.3 11.1-9.4 2.9-2.2 6.8-4.2 11.8-6.2 5-1.9 10.4-2.9 16.1-2.9 6.5 0 11.8 2.4 15.8 7.1 4 4.8 6.1 10.6 6.1 17.5v129.7h-30.4v-114.1c0-5.3-.8-9.2-2.3-11.6-1.5-2.4-4.6-3.6-9.2-3.6-2.6 0-5.2.5-7.8 1.6-2.6 1.1-4.5 2.1-5.8 3-1.3.9-3.1 2.4-5.5 4.3v120.4h-30.3z" fill="#100"/><path d="M1312.3 4095.2v-86.6h18.6c4 0 7.6.4 10.7 1.3 3.2.8 5.9 2.1 8.3 3.8 2.4 1.7 4.2 4 5.5 6.8 1.3 2.8 1.9 6.1 1.9 9.8 0 5.4-1.1 9.5-3.4 12.4-2.3 2.8-5.8 4.9-10.6 6.2 5.2 1.7 9 4.2 11.6 7.5 2.6 3.3 3.9 8 3.9 14.1 0 7.6-2.2 13.7-6.6 18.1-4.4 4.4-10.5 6.6-18.1 6.6h-21.8zm12.3-49.5h6.2c10.3 0 15.5-5.2 15.5-15.5 0-1.7-.2-3.2-.6-4.5-.4-1.3-.9-2.4-1.5-3.3-.6-.9-1.5-1.6-2.6-2.2-1.2-.6-2.2-1.1-3.2-1.4s-2.3-.6-4.1-.7c-1.8-.1-3.3-.2-4.5-.3h-5.1v27.9zm0 40.2h6.2c5.3 0 9.3-1.2 11.7-3.7 2.5-2.5 3.7-6.4 3.7-11.8s-1.2-9.3-3.7-11.8-6.4-3.7-11.7-3.7h-6.2v31zm41.5 9.3v-61.9h12.4v8.3c1.3-2.4 3.1-4.6 5.5-6.4 2.4-1.8 5.1-2.7 8-2.7.1 0 .8.1 2 .2v13.7c-2.3-.9-4.6-1.4-6.9-1.4-2.6 0-4.7.8-6.2 2.3-1.6 1.5-2.4 3.6-2.4 6.1v41.8h-12.4zm43.3.9c-3.4 0-6.4-1.5-8.8-4.5-2.4-3-3.6-6.3-3.6-10.1 0-3 .5-5.7 1.5-8.2 1-2.4 2.1-4.4 3.2-5.9s3-3 5.7-4.5c2.6-1.6 4.6-2.6 6-3.2s3.7-1.5 7.1-2.9c.6-.2 1-.4 1.3-.5v-4.4c0-3.1-.4-5.6-1.3-7.3-.9-1.7-2.5-2.6-4.9-2.6-2.1 0-3.6.7-4.6 2.2-.9 1.5-1.4 3.5-1.6 6.1v1.6H1397c.1-5.9 1.7-10.7 5-14.2s7.8-5.3 13.6-5.3 10.3 1.8 13.6 5.3c3.3 3.6 5 8.3 5 14.1v27.8c0 6.4.5 11.6 1.6 15.5h-12.3l-1.6-9.3c-.6 1.3-1.2 2.3-1.6 3-.4.7-1 1.6-1.8 2.6s-1.5 1.9-2.3 2.4c-.8.6-1.7 1.1-2.9 1.5-1.2.6-2.5.8-3.9.8zm6.2-10.2c.9 0 1.7-.3 2.5-.8s1.4-1 1.9-1.5c.4-.5.9-1.1 1.5-1.9.1-.2.2-.3.2-.3v-17.1c-.5.4-1.4.9-2.6 1.6-1.2.7-2.1 1.3-2.9 1.8-.7.5-1.6 1.1-2.6 1.9-1 .8-1.8 1.6-2.3 2.4-.5.8-1 1.7-1.5 2.8-.4 1.1-.6 2.2-.6 3.4.2 5.2 2.3 7.7 6.4 7.7zm42.7 10.2c-2.7 0-5.1-.8-7.2-2.3-2-1.5-3.6-3.6-4.7-6.3-1.1-2.6-1.9-5.4-2.5-8.2-.5-2.9-.9-5.9-1-9.2-.1-1.5-.1-5.2 0-11.1.1-2.1.2-4.1.3-5.8.1-1.7.3-3.5.7-5.4.3-1.9.7-3.5 1.2-5 .5-1.4 1.1-2.8 1.9-4.2.8-1.3 1.7-2.4 2.7-3.3 1-.9 2.3-1.6 3.7-2.1 1.5-.5 3.1-.8 4.8-.8 1.4 0 2.7.2 3.9.6 1.2.4 2.4 1 3.5 1.7 1.1.8 2 1.5 2.6 2.1.7.6 1.5 1.5 2.6 2.6v-30.8h12.4v86.6h-12.4v-5.6c-1.9 1.9-3.8 3.5-5.7 4.7-2.1 1.2-4.3 1.8-6.8 1.8zm3.1-10.2c3 0 6.1-.6 9.3-1.9v-38.9c-2.8-1.6-5.9-2.5-9.3-2.5-1.2 0-2.3.3-3.1.9-.8.6-1.5 1.5-1.9 2.6-.4 1.1-.7 2.3-.9 3.5-.2 1.2-.3 2.6-.3 4.3-.1 7.2-.1 12.9 0 17.2 0 2.1.1 3.9.3 5.5.2 1.6.5 3.2.9 4.7s1.1 2.7 1.9 3.5c.9.7 1.9 1.1 3.1 1.1zm51.8 9.3v-86.6h34v9.3h-21.7v27.8h15.5v9.3h-15.5v40.2h-12.3zm36.3 0v-61.9h12.4v8.3c1.3-2.4 3.1-4.6 5.5-6.4 2.4-1.8 5.1-2.7 8-2.7.1 0 .8.1 2 .2v13.7c-2.3-.9-4.6-1.4-6.9-1.4-2.6 0-4.7.8-6.2 2.3-1.6 1.5-2.4 3.6-2.4 6.1v41.8h-12.4zm63.7-4.9c-2.9 3.9-7.6 5.8-14.3 5.8-6.6 0-11.4-1.9-14.3-5.8s-4.3-9.4-4.3-16.7V4055c0-7.3 1.4-12.9 4.3-16.7s7.6-5.8 14.3-5.8c6.6 0 11.4 1.9 14.3 5.8s4.3 9.4 4.3 16.7v18.6c0 7.2-1.5 12.8-4.3 16.7zm-16.6-4.8c.7.3 1.4.4 2.3.4s1.6-.1 2.3-.4c.7-.3 1.2-.6 1.6-.9a5 5 0 0 0 1.1-1.6c.3-.7.5-1.4.7-1.9.2-.5.3-1.3.3-2.4.1-1 .1-1.8.1-2.4v-24c0-.6-.1-1.4-.1-2.4-.1-1-.2-1.8-.3-2.4-.2-.5-.4-1.2-.7-1.9-.3-.7-.7-1.3-1.1-1.6-.4-.4-1-.7-1.6-.9-.7-.3-1.4-.4-2.3-.4s-1.6.1-2.3.4c-.7.3-1.2.6-1.6.9a5 5 0 0 0-1.1 1.6c-.3.7-.5 1.4-.7 1.9-.2.5-.3 1.3-.3 2.4-.1 1-.1 1.8-.1 2.4v24c0 .6.1 1.4.1 2.4.1 1 .2 1.8.3 2.4.2.5.4 1.2.7 1.9.3.7.7 1.3 1.1 1.6.4.4.9.7 1.6.9zm46.3 10.6c-5.1 0-9.2-1.5-12.3-4.5-3.1-3-5.2-7-6.3-11.8l9.3-3.1c2.2 6.2 5.3 9.3 9.3 9.3 2 0 3.5-.5 4.6-1.6 1.1-1.1 1.6-2.6 1.6-4.6 0-2.9-1-5.3-3.1-7.2l-12.4-9.3c-1.4-.9-2.5-1.8-3.5-2.6-.9-.8-1.9-1.8-2.9-3s-1.7-2.5-2.2-4c-.5-1.5-.8-3.1-.8-4.8 0-5.3 1.7-9.3 5.1-12.1 3.4-2.8 7.9-4.2 13.5-4.2 2.7 0 5.1.4 7.3 1.3s4 2.1 5.4 3.6c1.5 1.5 2.7 3.3 3.6 5.1.9 1.9 1.7 4 2.2 6.3l-9.3 3.1c-.5-1.2-.9-2.3-1.4-3.2-.5-.9-1.1-1.8-1.8-2.9-.8-1-1.7-1.8-2.7-2.4-1-.6-2.2-.8-3.4-.8-2 0-3.5.5-4.6 1.6-1.1 1.1-1.6 2.6-1.6 4.6 0 1.9 1 3.7 3.1 5.2l12.4 9.3c1.4 1.1 2.6 2.2 3.6 3.2s1.9 2.2 2.9 3.5c.9 1.3 1.6 2.8 2.1 4.5.5 1.6.7 3.4.7 5.3 0 5.3-1.7 9.3-5.1 12.1-3.2 2.7-7.7 4.1-13.3 4.1zm42.2 0c-4.9 0-8.4-1.2-10.6-3.7-2.2-2.5-3.3-6.2-3.4-11.3v-38.5h-6.2v-9.3h6.2v-21.7h12.4v21.7h9.3v9.3h-9.3v36.1c0 2.5.3 4.3 1 5.5s2 1.7 4.1 1.7c.9 0 2.3-.2 4.2-.5v10.1c-3.1.4-5.7.6-7.7.6z" fill="#a29e5e"/></g></svg>